<?xml version="1.0" encoding="UTF-8"?>
<svg xmlns="http://www.w3.org/2000/svg" version="1.1" viewBox="0 0 119 32">
  <defs>
    <style>
      .cls-1 {
        display: none;
      }
    </style>
  </defs>
  <!-- Generator: Adobe Illustrator 28.7.0, SVG Export Plug-In . SVG Version: 1.2.0 Build 45)  -->
  <g>
    <g id="Layer_1" class="cls-1">
      <path d="M108.7,20.7v-4.4h.5l4.2-5h4.2l-5.6,6.6h-.9l-2.4,2.7ZM105.4,24.5V7h3.6v17.5h-3.6ZM113.6,24.5l-3.9-5.7,2.4-2.6,5.7,8.3h-4.3Z"/>
      <path d="M96.8,24.5v-13.1h3.5v2.3h.1c.2-.8.6-1.4,1.2-1.8.6-.4,1.2-.6,1.9-.6s.4,0,.6,0c.2,0,.4,0,.6,0v3.2c-.2,0-.4,0-.7-.1-.3,0-.6,0-.8,0-.5,0-1,.1-1.4.3-.4.2-.7.5-1,1-.2.4-.4.9-.4,1.4v7.4h-3.6Z"/>
      <path d="M87.8,24.7c-.8,0-1.6-.1-2.2-.4-.7-.3-1.2-.7-1.6-1.3-.4-.6-.6-1.3-.6-2.2s.1-1.3.4-1.8c.3-.5.6-.9,1.1-1.2.5-.3,1-.5,1.6-.7.6-.2,1.2-.3,1.9-.3.8,0,1.4-.2,1.8-.2.5,0,.8-.2,1-.3.2-.1.3-.4.3-.6h0c0-.6-.2-1-.5-1.3-.3-.3-.8-.4-1.4-.4s-1.2.1-1.6.4c-.4.3-.6.6-.8,1.1l-3.4-.3c.2-.8.5-1.5,1-2.1.5-.6,1.1-1,1.9-1.3.8-.3,1.7-.5,2.8-.5s1.4,0,2.1.3c.7.2,1.3.4,1.8.8.5.4.9.8,1.2,1.4.3.6.5,1.2.5,2v8.8h-3.4v-1.8h-.1c-.2.4-.5.8-.8,1.1-.4.3-.8.5-1.3.7-.5.2-1.1.3-1.7.3ZM88.9,22.2c.5,0,1-.1,1.4-.3.4-.2.7-.5,1-.9.2-.4.3-.8.3-1.2v-1.4c-.1,0-.3.1-.5.2-.2,0-.4.1-.7.2-.2,0-.5,0-.7.1-.2,0-.5,0-.7,0-.4,0-.8.2-1.1.3-.3.1-.6.3-.7.6-.2.2-.3.5-.3.9,0,.5.2.9.5,1.1.4.3.8.4,1.4.4Z"/>
      <path d="M63.4,24.5v-13.1h3.5v2.3h.2c.3-.8.7-1.4,1.4-1.8.6-.4,1.4-.7,2.3-.7s1.7.2,2.3.7c.6.4,1.1,1,1.3,1.8h.1c.3-.8.8-1.3,1.4-1.8.7-.5,1.5-.7,2.5-.7s2.2.4,3,1.2c.8.8,1.2,1.9,1.2,3.3v8.8h-3.6v-8.1c0-.7-.2-1.3-.6-1.6-.4-.4-.9-.5-1.4-.5s-1.2.2-1.5.6c-.4.4-.6,1-.6,1.6v8h-3.5v-8.2c0-.6-.2-1.2-.6-1.5-.4-.4-.8-.6-1.4-.6s-.8.1-1.1.3c-.3.2-.6.5-.8.8-.2.4-.3.8-.3,1.3v7.9h-3.6Z"/>
      <path d="M54.8,24.5v-13.1h3.5v2.3h.1c.2-.8.6-1.4,1.2-1.8.6-.4,1.2-.6,1.9-.6s.4,0,.6,0c.2,0,.4,0,.6,0v3.2c-.2,0-.4,0-.7-.1-.3,0-.6,0-.8,0-.5,0-1,.1-1.4.3-.4.2-.7.5-1,1-.2.4-.4.9-.4,1.4v7.4h-3.6Z"/>
      <path d="M47.6,24.7c-1.3,0-2.5-.3-3.5-.8-1-.6-1.7-1.3-2.2-2.3-.5-1-.8-2.2-.8-3.6s.3-2.5.8-3.5c.5-1,1.3-1.8,2.2-2.4,1-.6,2.1-.9,3.4-.9s1.7.1,2.4.4c.8.3,1.4.7,2,1.2.6.6,1,1.2,1.3,2.1.3.8.5,1.8.5,2.9v1h-11.1v-2.2h7.6c0-.5-.1-1-.3-1.4-.2-.4-.5-.7-.9-.9-.4-.2-.9-.3-1.4-.3s-1,.1-1.5.4c-.4.2-.8.6-1,1-.2.4-.4.9-.4,1.4v2.1c0,.6.1,1.2.4,1.7.2.5.6.8,1,1.1.4.3,1,.4,1.6.4s.8,0,1.1-.2c.3-.1.6-.3.9-.5.2-.2.4-.5.5-.8l3.4.2c-.2.8-.5,1.5-1,2.1-.5.6-1.2,1.1-2,1.4-.8.3-1.8.5-2.9.5Z"/>
      <path d="M27.6,29.4V11.4h3.6v2.2h.2c.2-.4.4-.7.7-1.1.3-.4.7-.7,1.2-.9.5-.2,1.1-.4,1.8-.4s1.8.2,2.6.8c.8.5,1.5,1.2,1.9,2.2.5,1,.7,2.2.7,3.7s-.2,2.7-.7,3.7c-.5,1-1.1,1.8-1.9,2.3-.8.5-1.7.8-2.7.8s-1.3-.1-1.8-.3c-.5-.2-.9-.5-1.2-.9-.3-.4-.6-.7-.7-1.1h-.1v7h-3.6ZM31.2,17.9c0,.8.1,1.5.3,2,.2.6.5,1,.9,1.4.4.3.9.5,1.5.5s1.1-.2,1.5-.5c.4-.3.7-.8.9-1.4.2-.6.3-1.3.3-2s-.1-1.4-.3-2c-.2-.6-.5-1-.9-1.3-.4-.3-.9-.5-1.5-.5s-1.1.2-1.5.5c-.4.3-.7.8-.9,1.3-.2.6-.3,1.2-.3,2Z"/>
      <path d="M18.7,24.7c-.8,0-1.6-.1-2.2-.4-.7-.3-1.2-.7-1.6-1.3-.4-.6-.6-1.3-.6-2.2s.1-1.3.4-1.8c.3-.5.6-.9,1.1-1.2.5-.3,1-.5,1.6-.7.6-.2,1.2-.3,1.9-.3.8,0,1.4-.2,1.8-.2.5,0,.8-.2,1-.3.2-.1.3-.4.3-.6h0c0-.6-.2-1-.5-1.3-.3-.3-.8-.4-1.4-.4s-1.2.1-1.6.4c-.4.3-.6.6-.8,1.1l-3.4-.3c.2-.8.5-1.5,1-2.1.5-.6,1.1-1,1.9-1.3.8-.3,1.7-.5,2.8-.5s1.4,0,2.1.3c.7.2,1.3.4,1.8.8.5.4.9.8,1.2,1.4.3.6.5,1.2.5,2v8.8h-3.4v-1.8h-.1c-.2.4-.5.8-.8,1.1-.4.3-.8.5-1.3.7-.5.2-1.1.3-1.7.3ZM19.7,22.2c.5,0,1-.1,1.4-.3.4-.2.7-.5,1-.9.2-.4.3-.8.3-1.2v-1.4c-.1,0-.3.1-.5.2-.2,0-.4.1-.7.2-.2,0-.5,0-.7.1-.2,0-.5,0-.7,0-.4,0-.8.2-1.1.3-.3.1-.6.3-.7.6-.2.2-.3.5-.3.9,0,.5.2.9.5,1.1.4.3.8.4,1.4.4Z"/>
      <path d="M1,24.5V7h6.9c1.3,0,2.5.3,3.4.8.9.5,1.6,1.2,2.1,2.1.5.9.7,1.9.7,3.1s-.2,2.2-.8,3.1c-.5.9-1.2,1.6-2.2,2.1-.9.5-2.1.7-3.4.7H3.4v-3h3.8c.7,0,1.3-.1,1.8-.4.5-.2.8-.6,1-1,.2-.4.3-1,.3-1.5s-.1-1.1-.3-1.5c-.2-.4-.6-.8-1-1-.5-.2-1.1-.4-1.8-.4h-2.5v14.4H1Z"/>
    </g>
    <g id="Layer_2">
      <g>
        <path d="M9.8,12.6c0-.6-.3-1.1-.7-1.4-.4-.3-1-.5-1.7-.5s-.9,0-1.2.2c-.3.1-.6.3-.7.6-.2.2-.3.5-.3.8,0,.3,0,.5.1.7.1.2.3.4.5.5.2.1.5.3.7.4.3.1.6.2,1,.3l1.4.3c.8.2,1.5.4,2.1.7.6.3,1.1.7,1.5,1.1.4.4.7.9.9,1.5.2.6.3,1.2.3,1.9,0,1.1-.3,2-.8,2.8-.5.8-1.2,1.4-2.2,1.8-.9.4-2.1.6-3.4.6s-2.5-.2-3.5-.6-1.8-1.1-2.3-2-.8-2-.8-3.3h3.7c0,.6.2,1,.4,1.4.2.4.6.7,1,.8s.9.3,1.5.3,1,0,1.3-.2c.4-.2.6-.4.8-.6.2-.3.3-.6.3-.9,0-.3,0-.6-.3-.8-.2-.2-.5-.4-.8-.6-.4-.2-.9-.3-1.4-.5l-1.7-.4c-1.4-.3-2.5-.9-3.3-1.7-.8-.8-1.2-1.8-1.2-3.1,0-1.1.3-2,.8-2.8.5-.8,1.3-1.4,2.2-1.9.9-.4,2-.7,3.2-.7s2.3.2,3.2.7,1.6,1.1,2.1,1.9.8,1.8.8,2.8h-3.7Z"/>
        <path d="M16.6,10.2c-.5,0-1-.2-1.4-.6-.4-.4-.6-.8-.6-1.4s.2-1,.6-1.4c.4-.4.8-.6,1.4-.6s1,.2,1.4.6c.4.4.6.8.6,1.4s-.2,1-.6,1.4c-.4.4-.8.6-1.4.6ZM14.7,24.6v-12.9h3.8v12.9h-3.8Z"/>
        <path d="M19.4,24.6v-12.9h3.6v2.4h.1c.2-.8.7-1.4,1.3-1.9.6-.5,1.3-.7,2.1-.7s1.5.2,2.1.7,1,1.1,1.1,1.8h.1c.2-.8.7-1.4,1.3-1.8.6-.5,1.4-.7,2.3-.7s2.1.4,2.8,1.2c.7.8,1.1,1.9,1.1,3.2v8.7h-3.8v-7.8c0-.6-.2-1.1-.5-1.5-.3-.3-.7-.5-1.2-.5s-.9.2-1.2.6c-.3.4-.4.9-.4,1.5v7.7h-3.7v-7.8c0-.6-.2-1.1-.5-1.4-.3-.3-.7-.5-1.2-.5s-.6,0-.9.3c-.3.2-.5.4-.6.7s-.2.7-.2,1.1v7.6h-3.8Z"/>
        <path d="M38.7,29.5V11.7h3.8v2.2h.1c.2-.4.4-.8.7-1.1.3-.4.7-.7,1.1-.9.4-.2,1-.3,1.6-.3s1.6.2,2.3.7c.7.5,1.3,1.2,1.8,2.2.4,1,.7,2.2.7,3.7s-.2,2.7-.6,3.7-1,1.7-1.7,2.2c-.7.5-1.5.7-2.4.7s-1.1-.1-1.6-.3c-.4-.2-.8-.5-1.1-.8-.3-.3-.5-.7-.7-1.1h0v6.9h-3.8ZM42.4,18.2c0,.7,0,1.3.3,1.8s.4.9.8,1.2.7.4,1.2.4.9-.1,1.2-.4c.3-.3.6-.7.7-1.2s.3-1.1.3-1.8,0-1.3-.3-1.8c-.2-.5-.4-.9-.7-1.2-.3-.3-.7-.4-1.2-.4s-.9.1-1.2.4c-.3.3-.6.7-.8,1.2-.2.5-.3,1.1-.3,1.8Z"/>
        <path d="M55.5,7.4v17.2h-3.8V7.4h3.8Z"/>
        <path d="M62.5,24.9c-1.3,0-2.3-.3-3.2-.8-.9-.5-1.6-1.3-2.1-2.3-.5-1-.7-2.2-.7-3.6s.2-2.5.7-3.5c.5-1,1.2-1.8,2.1-2.3.9-.6,1.9-.8,3.1-.8s1.6.1,2.3.4c.7.3,1.3.7,1.8,1.3s.9,1.3,1.2,2.1c.3.8.4,1.8.4,2.8v1h-10.4v-2.4h6.9c0-.4-.1-.8-.3-1.2s-.4-.6-.8-.8c-.3-.2-.7-.3-1.1-.3s-.8.1-1.1.3-.6.5-.8.8c-.2.4-.3.7-.3,1.2v2.4c0,.5,0,1,.3,1.4.2.4.5.7.8.9s.8.3,1.3.3.6,0,.9-.2.5-.2.7-.4c.2-.2.3-.4.4-.7h3.5c-.1,1-.5,1.7-1,2.3s-1.1,1.1-1.9,1.5-1.7.5-2.8.5Z"/>
        <path d="M75.5,11.7v3h-7.6v-3h7.6ZM69.6,8.6h3.8v11.9c0,.3,0,.5.1.6s.2.3.3.3.3,0,.5,0,.3,0,.5,0c.2,0,.3,0,.4,0l.6,3c-.2,0-.4.1-.8.2s-.7.1-1.2.2c-.9,0-1.7,0-2.3-.3-.6-.3-1.1-.7-1.5-1.3-.3-.6-.5-1.3-.5-2.2v-12.4Z"/>
        <path d="M81.4,24.9c-1.3,0-2.3-.3-3.2-.8s-1.6-1.3-2.1-2.3c-.5-1-.7-2.2-.7-3.6s.2-2.5.7-3.5c.5-1,1.2-1.8,2.1-2.3.9-.6,1.9-.8,3.1-.8s1.6.1,2.3.4c.7.3,1.3.7,1.8,1.3s.9,1.3,1.2,2.1c.3.8.4,1.8.4,2.8v1h-10.4v-2.4h6.9c0-.4-.1-.8-.3-1.2s-.4-.6-.8-.8c-.3-.2-.7-.3-1.1-.3s-.8.1-1.1.3-.6.5-.8.8c-.2.4-.3.7-.3,1.2v2.4c0,.5,0,1,.3,1.4.2.4.5.7.8.9s.8.3,1.3.3.6,0,.9-.2.5-.2.7-.4c.2-.2.3-.4.4-.7h3.5c-.1,1-.5,1.7-1,2.3s-1.1,1.1-1.9,1.5-1.7.5-2.8.5Z"/>
        <path d="M91.3,24.8c-.8,0-1.4-.1-2-.4s-1.1-.7-1.4-1.3c-.3-.6-.5-1.3-.5-2.1s.1-1.3.4-1.8c.2-.5.6-.9,1-1.2.4-.3.9-.5,1.4-.7.5-.2,1.1-.3,1.7-.3.7,0,1.2-.1,1.6-.2s.7-.2.9-.3c.2-.1.3-.3.3-.6h0c0-.5-.1-.8-.4-1-.3-.2-.6-.4-1.1-.4s-.9.1-1.2.4-.5.6-.6,1h-3.5c.1-.9.4-1.6.8-2.2.4-.6,1-1.1,1.8-1.5.8-.4,1.7-.5,2.7-.5s1.5,0,2.1.3,1.2.5,1.7.8c.5.4.8.8,1.1,1.3.3.5.4,1.1.4,1.8v8.8h-3.6v-1.8h0c-.2.4-.5.8-.8,1.1s-.7.5-1.2.7-.9.2-1.5.2ZM92.4,22.2c.4,0,.8,0,1.1-.3.3-.2.6-.4.8-.7s.3-.7.3-1.1v-1.2c-.1,0-.2.1-.4.2s-.3,0-.5.1c-.2,0-.4,0-.6.1-.2,0-.4,0-.6,0-.4,0-.7.2-.9.3s-.4.3-.6.5c-.1.2-.2.4-.2.7,0,.4.1.8.4,1,.3.2.6.3,1.1.3Z"/>
        <path d="M99.7,24.6v-12.9h3.6v2.4h.1c.2-.8.7-1.4,1.3-1.9.6-.5,1.3-.7,2.1-.7s1.5.2,2.1.7,1,1.1,1.1,1.8h.1c.2-.8.7-1.4,1.3-1.8.7-.5,1.4-.7,2.3-.7s2.1.4,2.8,1.2c.7.8,1.1,1.9,1.1,3.2v8.7h-3.8v-7.8c0-.6-.2-1.1-.5-1.5-.3-.3-.7-.5-1.2-.5s-.9.2-1.2.6c-.3.4-.4.9-.4,1.5v7.7h-3.7v-7.8c0-.6-.2-1.1-.5-1.4-.3-.3-.7-.5-1.2-.5s-.6,0-.9.3-.5.4-.6.7c-.1.3-.2.7-.2,1.1v7.6h-3.8Z"/>
      </g>
    </g>
  </g>
</svg>